<?xml version="1.0" encoding="utf-8"?>
<!-- Generator: Adobe Illustrator 19.2.1, SVG Export Plug-In . SVG Version: 6.00 Build 0)  -->
<svg version="1.1" id="Layer_1" xmlns="http://www.w3.org/2000/svg" xmlns:xlink="http://www.w3.org/1999/xlink" x="0px" y="0px"
	 viewBox="0 0 200 50" style="enable-background:new 0 0 200 50;" xml:space="preserve">
<style type="text/css">
	.st0{fill:#FFFFFF;}
</style>
<g>
	<path class="st0" d="M54.7,40c-3.5,0-6.3-1.1-8.4-3.2c-2.1-2.1-3.1-5.1-3.1-8.9c0-3.7,1-6.6,3.1-8.8c2.1-2.2,4.9-3.3,8.4-3.3
		c0.9,0,1.8,0.1,2.5,0.2c0.7,0.1,1.5,0.2,2.1,0.4c0.5,0.2,1.1,0.4,1.7,0.6c0.6,0.3,1.1,0.5,1.5,0.7v5.5H62c-0.3-0.3-0.6-0.5-1.1-0.9
		c-0.4-0.3-0.9-0.7-1.5-1c-0.5-0.3-1.1-0.6-1.8-0.8c-0.7-0.2-1.3-0.3-2.1-0.3c-0.9,0-1.6,0.1-2.3,0.4c-0.7,0.3-1.4,0.7-2,1.4
		c-0.6,0.6-1.1,1.4-1.4,2.4c-0.4,1-0.6,2.2-0.6,3.6c0,1.4,0.2,2.7,0.6,3.6c0.4,1,0.9,1.8,1.5,2.4c0.6,0.6,1.3,1,2,1.3
		c0.8,0.3,1.5,0.4,2.2,0.4c0.8,0,1.5-0.1,2.2-0.4c0.7-0.2,1.3-0.5,1.8-0.8c0.5-0.3,1-0.6,1.4-1c0.4-0.3,0.7-0.6,1-0.9h0.5V38
		c-0.4,0.2-0.9,0.4-1.5,0.7c-0.6,0.3-1.2,0.5-1.7,0.6c-0.7,0.2-1.4,0.4-2.1,0.5C56.7,39.9,55.8,40,54.7,40"/>
	<path class="st0" d="M82.1,39.5h-5.5v-8.7c0-0.7,0-1.4-0.1-2.1c-0.1-0.7-0.2-1.2-0.3-1.5c-0.2-0.4-0.5-0.7-0.8-0.8
		c-0.4-0.2-0.8-0.3-1.4-0.3c-0.5,0-0.9,0.1-1.4,0.2c-0.5,0.2-1,0.4-1.5,0.8v12.4h-5.5V15.3h5.5V24c0.9-0.8,1.8-1.3,2.6-1.8
		c0.9-0.4,1.8-0.6,2.8-0.6c1.8,0,3.2,0.6,4.1,1.7c1,1.1,1.4,2.8,1.4,4.9V39.5z"/>
	<path class="st0" d="M95,40c-3.3,0-5.9-0.8-7.7-2.4c-1.8-1.6-2.7-3.8-2.7-6.7c0-2.9,0.8-5.1,2.5-6.8c1.7-1.7,4-2.6,7-2.6
		c2.7,0,4.8,0.7,6.1,2.2c1.4,1.4,2,3.5,2,6.2v2H90.2c0.1,0.8,0.2,1.5,0.5,2.1c0.3,0.6,0.7,1,1.2,1.3c0.5,0.3,1,0.6,1.7,0.7
		c0.6,0.1,1.3,0.2,2.1,0.2c0.6,0,1.3-0.1,1.9-0.2c0.6-0.1,1.2-0.3,1.7-0.6c0.5-0.2,0.9-0.4,1.3-0.7c0.4-0.2,0.7-0.4,0.9-0.6h0.6v4.5
		c-0.4,0.2-0.9,0.3-1.2,0.5c-0.4,0.1-0.9,0.3-1.5,0.5c-0.6,0.2-1.2,0.3-1.9,0.4C96.7,39.9,95.9,40,95,40 M96.9,28.5
		c0-1.2-0.3-2-0.8-2.7c-0.5-0.6-1.3-0.9-2.4-0.9c-1.1,0-1.9,0.3-2.5,1c-0.6,0.6-0.9,1.5-1,2.6H96.9z"/>
	<path class="st0" d="M110.9,40c-1.3,0-2.5-0.1-3.7-0.4c-1.2-0.3-2.1-0.6-2.9-1v-4.6h0.5c0.3,0.2,0.6,0.4,0.9,0.7
		c0.3,0.2,0.8,0.5,1.4,0.7c0.5,0.2,1.1,0.4,1.7,0.6c0.6,0.2,1.3,0.3,2.1,0.3c0.8,0,1.5-0.1,2-0.4c0.6-0.2,0.9-0.6,0.9-1.1
		c0-0.4-0.1-0.7-0.4-0.9c-0.3-0.2-0.8-0.4-1.6-0.6c-0.4-0.1-0.9-0.2-1.6-0.3c-0.6-0.1-1.2-0.3-1.7-0.4c-1.4-0.4-2.4-1.1-3.1-1.9
		c-0.7-0.8-1-1.9-1-3.3c0-0.8,0.2-1.5,0.5-2.2c0.4-0.7,0.9-1.3,1.6-1.8c0.7-0.5,1.6-0.9,2.6-1.3c1-0.3,2.2-0.5,3.5-0.5
		c1.2,0,2.4,0.1,3.4,0.4c1,0.2,1.9,0.5,2.6,0.9v4.4h-0.4c-0.2-0.1-0.5-0.3-0.9-0.6c-0.4-0.2-0.8-0.5-1.2-0.6c-0.5-0.2-1-0.4-1.5-0.5
		c-0.6-0.1-1.2-0.2-1.8-0.2c-0.8,0-1.5,0.1-2,0.4c-0.6,0.3-0.8,0.6-0.8,1.1c0,0.4,0.1,0.7,0.4,0.9c0.3,0.2,0.9,0.5,1.8,0.7
		c0.5,0.1,1,0.2,1.6,0.3c0.6,0.1,1.2,0.3,1.8,0.4c1.3,0.4,2.2,1,2.9,1.8c0.7,0.8,1,1.8,1,3.1c0,0.8-0.2,1.6-0.6,2.3
		c-0.4,0.7-0.9,1.4-1.7,1.9c-0.8,0.6-1.6,1-2.7,1.3C113.6,39.8,112.3,40,110.9,40"/>
	<path class="st0" d="M127.9,40c-1.3,0-2.5-0.1-3.7-0.4c-1.2-0.3-2.1-0.6-2.9-1v-4.6h0.5c0.3,0.2,0.6,0.4,0.9,0.7
		c0.3,0.2,0.8,0.5,1.4,0.7c0.5,0.2,1.1,0.4,1.7,0.6c0.6,0.2,1.3,0.3,2.1,0.3c0.8,0,1.5-0.1,2-0.4c0.6-0.2,0.9-0.6,0.9-1.1
		c0-0.4-0.1-0.7-0.4-0.9c-0.3-0.2-0.8-0.4-1.6-0.6c-0.4-0.1-1-0.2-1.6-0.3c-0.6-0.1-1.2-0.3-1.7-0.4c-1.4-0.4-2.4-1.1-3.1-1.9
		c-0.7-0.8-1-1.9-1-3.3c0-0.8,0.2-1.5,0.5-2.2c0.4-0.7,0.9-1.3,1.6-1.8c0.7-0.5,1.6-0.9,2.6-1.3c1-0.3,2.2-0.5,3.5-0.5
		c1.2,0,2.4,0.1,3.4,0.4c1,0.2,1.9,0.5,2.6,0.9v4.4h-0.4c-0.2-0.1-0.5-0.3-0.9-0.6c-0.4-0.2-0.8-0.5-1.2-0.6c-0.5-0.2-1-0.4-1.6-0.5
		c-0.6-0.1-1.2-0.2-1.8-0.2c-0.8,0-1.5,0.1-2,0.4c-0.5,0.3-0.8,0.6-0.8,1.1c0,0.4,0.1,0.7,0.4,0.9c0.3,0.2,0.9,0.5,1.8,0.7
		c0.5,0.1,1,0.2,1.6,0.3c0.6,0.1,1.2,0.3,1.8,0.4c1.3,0.4,2.2,1,2.9,1.8c0.7,0.8,1,1.8,1,3.1c0,0.8-0.2,1.6-0.6,2.3
		c-0.4,0.7-0.9,1.4-1.7,1.9c-0.8,0.6-1.6,1-2.7,1.3C130.5,39.8,129.3,40,127.9,40"/>
	<path class="st0" d="M139.8,39.5h-2.4v-2.8h2.4V39.5z"/>
	<path class="st0" d="M145.9,39.7c-0.8,0-1.5-0.1-2.1-0.4c-0.6-0.2-1.2-0.6-1.7-1.1c-0.5-0.5-0.8-1.1-1.1-1.8
		c-0.3-0.7-0.4-1.6-0.4-2.5c0-1,0.1-1.8,0.4-2.5c0.3-0.7,0.6-1.3,1.1-1.8c0.4-0.5,1-0.9,1.6-1.1c0.7-0.3,1.4-0.4,2.1-0.4
		c0.6,0,1.2,0.1,1.8,0.3c0.6,0.2,1.1,0.4,1.5,0.6v2.1h-0.1c-0.1-0.1-0.3-0.2-0.5-0.4c-0.2-0.1-0.5-0.3-0.8-0.4
		c-0.3-0.1-0.6-0.2-0.9-0.3c-0.4-0.1-0.7-0.1-1-0.1c-1,0-1.8,0.4-2.4,1.1c-0.6,0.7-0.9,1.8-0.9,3.1c0,1.3,0.3,2.3,0.9,3
		c0.6,0.7,1.4,1.1,2.4,1.1c0.6,0,1.2-0.1,1.8-0.4c0.6-0.2,1-0.6,1.5-1h0.1v2.1c-0.2,0.1-0.4,0.2-0.7,0.3c-0.3,0.1-0.5,0.2-0.8,0.3
		c-0.3,0.1-0.6,0.2-0.9,0.2C146.6,39.7,146.3,39.7,145.9,39.7"/>
	<path class="st0" d="M160.5,34c0,1.8-0.5,3.3-1.4,4.3c-0.9,1-2.1,1.5-3.6,1.5c-1.6,0-2.8-0.5-3.7-1.6c-0.9-1-1.3-2.5-1.3-4.2
		c0-1.8,0.5-3.3,1.4-4.3c0.9-1,2.1-1.5,3.6-1.5c1.5,0,2.7,0.5,3.6,1.5C160,30.7,160.5,32.2,160.5,34 M158.5,34
		c0-1.4-0.3-2.5-0.8-3.2c-0.5-0.7-1.3-1-2.3-1c-1,0-1.7,0.3-2.3,1c-0.5,0.7-0.8,1.7-0.8,3.2c0,1.4,0.3,2.4,0.8,3.1
		c0.5,0.7,1.3,1.1,2.3,1.1c1,0,1.7-0.3,2.2-1C158.2,36.4,158.5,35.4,158.5,34"/>
	<path class="st0" d="M174.5,39.5v-6.4c0-0.5,0-1-0.1-1.4c0-0.4-0.1-0.8-0.2-1c-0.1-0.3-0.3-0.5-0.6-0.6c-0.2-0.1-0.6-0.2-1-0.2
		c-0.4,0-0.8,0.1-1.2,0.3c-0.4,0.2-0.9,0.6-1.4,1c0,0.1,0,0.2,0,0.4c0,0.2,0,0.3,0,0.5v7.2h-1.9v-6.4c0-0.5,0-1-0.1-1.4
		c0-0.4-0.1-0.8-0.2-1c-0.1-0.3-0.3-0.5-0.6-0.6c-0.3-0.1-0.6-0.2-1-0.2c-0.4,0-0.8,0.1-1.3,0.4c-0.4,0.2-0.9,0.6-1.3,1v8.2h-1.9
		v-11h1.9v1.2c0.5-0.5,1-0.9,1.5-1.1c0.5-0.3,1-0.4,1.6-0.4c0.7,0,1.2,0.1,1.8,0.4c0.5,0.3,0.9,0.8,1.2,1.5c0.6-0.6,1.1-1.1,1.7-1.4
		c0.5-0.3,1.1-0.5,1.8-0.5c0.5,0,0.9,0.1,1.3,0.2c0.4,0.1,0.7,0.4,1,0.7c0.3,0.3,0.5,0.8,0.7,1.3c0.2,0.5,0.2,1.1,0.2,1.9v7.2H174.5
		z"/>
	<path class="st0" d="M48.7,14.6c-1.6,0.7-3,1.6-4.2,2.9c-2.5,2.6-3.8,6.1-3.8,10.4c0,4.4,1.3,8,3.8,10.5c2.5,2.5,5.8,3.8,9.8,3.9
		c1.3,0.7,2,1.6,2,2.5c0,0.6-0.4,1.3-1.1,1.8c-1,0.9-2.8,1.6-5,2.2c-0.1,0-0.2,0.1-0.3,0.1C47.3,49.6,43.8,50,40,50
		c-3.8,0-7.3-0.4-10.1-1.1c-0.1,0-0.2-0.1-0.3-0.1c-2.2-0.6-3.9-1.3-5-2.2c-0.7-0.6-1.1-1.2-1.1-1.8c0-1.3,1.4-2.4,3.8-3.3
		c-1.2-0.7-1.9-1.6-1.9-2.5c-0.1-0.5,0-1,0.2-1.4c1.2-2.6,7.1-2.8,8.4-4.9c1.6-3.3,2-11.9,2.1-14.5c-4.5-0.4-5.8-0.9-5.8-2.2
		c0-1.1,0.4-1.7,3.8-2.2c0,0,0.3-0.1,0.8-0.2c-1.6-1.4-2.7-3.5-2.7-5.9c0-3.3,2-6,4.7-7.2C38,0.2,39,0,40,0c1,0,2,0.2,2.9,0.6
		c2.8,1.2,4.7,3.9,4.7,7.2c0,2.4-1,4.5-2.7,5.9c0.3,0,0.6,0.1,0.9,0.2C47.3,14.1,48.2,14.3,48.7,14.6"/>
</g>
</svg>
