<?xml version="1.0" encoding="utf-8"?>
<!-- Generator: Adobe Illustrator 19.2.1, SVG Export Plug-In . SVG Version: 6.00 Build 0)  -->
<svg version="1.1" id="Layer_1" xmlns="http://www.w3.org/2000/svg" xmlns:xlink="http://www.w3.org/1999/xlink" x="0px" y="0px"
	 viewBox="0 0 200 50" style="enable-background:new 0 0 200 50;" xml:space="preserve">
<style type="text/css">
	.st0{fill:#FFFFFF;}
</style>
<g>
	<path class="st0" d="M63.8,22.1c1.5-1.7,3.2-2.6,5.4-2.2c2.8,0.5,4.3,2.2,4.4,5.3c0.1,2.6,0,5.3,0,7.9c0,1.1-0.5,1.9-1.7,1.9
		c-1.3,0-1.7-0.8-1.7-2c0-2.1,0-4.3,0-6.4c0-2.3-1.1-3.6-3.1-3.6c-2,0-3.3,1.3-3.3,3.6c0,2.1,0,4.2,0,6.3c0,1.5-0.6,2.2-1.7,2.2
		c-1.1,0-1.7-0.7-1.7-2.2c0-3.4,0-6.8,0-10.2c0-1.1,0-2.3,1.4-2.5C63,19.8,63.5,20.7,63.8,22.1z"/>
	<path class="st0" d="M82.1,19.9c1.5,0,3,0.4,4.3,1.1c0.8,0.4,1.2,1,0.8,1.9c-0.4,0.8-1.1,1-2,0.6c-1.1-0.5-2.1-1-3.3-0.9
		c-0.9,0-1.8,0.1-2.1,1.2c-0.2,1.1,0.7,1.4,1.4,1.7c1.2,0.5,2.4,0.8,3.6,1.3c2.2,0.9,3,2.2,2.9,4.2c-0.2,2-1.5,3.4-3.7,4
		c-2.6,0.6-4.9-0.1-7.1-1.3c-0.9-0.5-1.2-1.2-0.8-2.1c0.5-0.9,1.3-0.9,2.1-0.4c1.1,0.6,2.2,1.1,3.4,1.3c0.7,0.1,1.3,0,1.9-0.2
		c0.6-0.2,1-0.6,1-1.3c0-0.6-0.3-1-0.8-1.3c-0.7-0.3-1.4-0.6-2.2-0.8c-0.7-0.2-1.4-0.4-2.1-0.7c-2.2-0.9-3.1-2.4-2.9-4.4
		c0.3-1.9,1.8-3.5,3.9-3.8C81.1,19.9,81.6,19.9,82.1,19.9z"/>
	<path class="st0" d="M91,27.5c0-0.8,0-1.7,0-2.5c0-1,0.3-2.1-1.3-2.2c-0.5-0.1-0.7-0.7-0.7-1.3c0-0.6,0.3-1.1,0.9-1.2
		c1-0.1,1.1-0.7,1-1.5c0-0.4,0-0.8,0-1.2c0.1-1,0.7-1.6,1.7-1.6c1.1,0,1.6,0.7,1.7,1.8c0,0.1,0,0.3,0,0.4c-0.3,1.5,0.3,2.2,1.9,1.9
		c0.4-0.1,0.9,0,1.3,0.1c0.7,0.2,1,0.7,1,1.4c0,0.7-0.4,1.2-1.2,1.3c-0.1,0-0.2,0-0.3,0c-0.9,0.1-2-0.4-2.5,0.3
		c-0.4,0.7-0.2,1.8-0.2,2.7c0,1.4,0,2.7,0,4.1c0,1.5,0.5,2,2,2c1,0,1.9,0.1,2,1.3c0.1,1.1-0.8,1.4-1.7,1.6c-3.6,0.8-5.7-0.8-5.8-4.4
		C91,29.6,91,28.5,91,27.5z"/>
	<path class="st0" d="M55.9,25c0,2.6,0,5.2,0,7.7c0,1.2-0.2,2.2-1.6,2.3c-1.4,0.1-1.8-0.9-1.8-2.1c0-5.2,0-10.4,0-15.6
		c0-1.2,0.5-2,1.7-2.1c1.1-0.1,1.7,0.7,1.7,2.2C55.9,19.9,55.9,22.5,55.9,25z"/>
	<path class="st0" d="M23.2,24.8c0,4,0,8,0,12c0,0.5,0.4,1.3-0.6,1.4c-0.8,0.1-1.3-0.4-1.6-1.1c-0.1-0.3-0.1-0.8-0.1-1.2
		c0-7.4,0-14.8,0-22.2c0-0.5,0-1,0.3-1.4c0.4-0.5,0.9-0.9,1.6-0.7c0.7,0.2,0.4,0.8,0.4,1.3C23.2,16.8,23.2,20.8,23.2,24.8z"/>
	<path class="st0" d="M18.9,24.9c0,3.1,0,6.2,0,9.3c0,0.5,0.3,1.2-0.5,1.3c-0.8,0.1-1.3-0.3-1.6-1c-0.2-0.4-0.2-0.9-0.2-1.3
		c0-5.6,0-11.3,0-16.9c0-0.6,0-1.3,0.5-1.8c0.4-0.4,0.9-0.6,1.5-0.5c0.6,0.2,0.3,0.7,0.3,1.1C18.9,18.5,18.9,21.7,18.9,24.9z"/>
	<path class="st0" d="M45.8,11.8C39.9,10.9,34.1,10,28.2,9c-2-0.3-2.8,0.3-2.8,2.4c0,4.5,0,9.1,0,13.6c0,4.6,0,9.2,0,13.7
		c0,2,0.9,2.6,2.8,2.3c5.9-1.1,11.8-2.1,17.7-3.1c1.9-0.3,2.4-0.8,2.4-2.8c0-6.8,0-13.6,0-20.5C48.2,12.6,47.7,12.1,45.8,11.8z
		 M43,35.2c-3.7,0.5-7.3,1.2-11,1.7c-1.7,0.3-2.2-0.2-2.2-1.9c0-3.3,0-6.6,0-9.9s0-6.6,0-9.9c0-1.8,0.6-2.2,2.4-1.9
		c3.5,0.5,7.1,0.9,10.6,1.3C44.6,14.7,45,15,45,17c0,5.3,0,10.5,0,15.8C45,34.3,44.5,35,43,35.2z"/>
	<path class="st0" d="M166.2,22.3c0-1.1-0.2-2.1-1.5-2.2c-1.3-0.1-1.8,0.7-1.9,2c-3.7-2.9-7.3-3-10-0.2c-2.4,2.4-2.6,6.8-0.5,9.4
		c1.1,1.4,2.6,2.2,4.3,2.5c2.4,0.4,4.5-0.5,6.2-2.5c0.2,4-1.5,5.7-5.1,5.5c-1.3,0-2.6-0.4-3.8-1c-0.9-0.4-1.8-0.5-2.2,0.6
		c-0.5,1,0.2,1.6,1.1,2c2,0.9,4.1,1.2,6.3,1.1c4.8-0.2,7.1-2.6,7.2-7.4C166.2,28.8,166.2,25.5,166.2,22.3z M158.5,30.8
		c-2.4,0-4.2-1.8-4.2-4.1c0-2.3,1.8-4.1,4.2-4.1c2.4,0,4.3,1.8,4.4,4C162.9,29,161,30.9,158.5,30.8z"/>
	<path class="st0" d="M130.8,22c-1.2-1.4-2.8-2.1-4.6-2.2c-2.2-0.2-3.8,0.8-5.3,2.6c-0.1-1.4-0.5-2.5-2-2.4
		c-1.5,0.1-1.6,1.3-1.6,2.5c0,5,0,9.9,0,14.9c0,1.2,0.5,2.1,1.7,2.1c1.3,0,1.7-0.9,1.7-2.1c0-1.4,0-2.9,0-4.6c3.4,3,7.1,3.1,9.8,0.4
		C133.3,30.4,133.5,25.1,130.8,22z M125,32.3c-2.5,0-4.3-2-4.3-4.8c0-2.7,1.8-4.8,4.3-4.8c2.3,0,4.2,2.1,4.2,4.7
		C129.3,30.2,127.4,32.3,125,32.3z"/>
	<path class="st0" d="M173.4,28.8c1.4,0,2.7,0,4.1,0c0,0,0,0,0,0c1.4,0,2.7,0,4.1,0c1.1,0,1.8-0.6,1.8-1.8c0.1-3-2.1-6.1-5-6.9
		c-3.5-1-6.9,0.6-8.5,3.7c-1.7,3.5-0.8,7.8,2.1,9.9c2.8,2.1,7.3,2,9.8-0.2c0.6-0.6,1-1.2,0.5-2c-0.6-0.9-1.4-0.7-2.2-0.2
		c-0.5,0.3-1,0.6-1.5,0.8c-2.5,0.9-5-0.2-5.8-2.4C172.5,29,172.6,28.7,173.4,28.8z M172.6,25.6c0.4-1.7,1.9-3,3.7-3
		c1.8,0,3.2,1.2,3.6,2.9c0.1,0.6,0.1,1-0.7,1c-1-0.1-1.9,0-2.9,0c-1,0-2,0-2.9,0C172.7,26.5,172.5,26.3,172.6,25.6z"/>
	<path class="st0" d="M113.8,25.5c-0.1-3-1.8-5-4.7-5.4c-2-0.3-4-0.2-5.9,0.5c-0.9,0.3-1.8,0.8-1.5,1.9c0.3,1.1,1.3,1.2,2.3,0.8
		c1.2-0.4,2.5-0.5,3.7-0.4c1.5,0.2,2.6,1.1,2.8,2.5c0.1,0.7,0,0.9-0.8,0.7c-2-0.5-3.9-0.6-5.9,0c-2.2,0.6-3.4,2.3-3.4,4.4
		c0,2.1,1.3,3.7,3.4,4.4c2.4,0.7,4.6,0.1,6.7-1.7c0.1,1.4,0.9,1.9,2,1.7c1.1-0.1,1.4-0.9,1.4-1.9C113.8,30.5,113.8,28,113.8,25.5z
		 M110.1,31.1c-0.8,1.2-2,1.6-4,1.7c-1.1,0-2.3-0.7-2.4-2c-0.2-1.4,0.7-2.3,2.5-2.7c0.9-0.2,1.7-0.1,2.6,0.1
		C110.6,28.5,111.1,29.6,110.1,31.1z"/>
	<path class="st0" d="M148,25.2c-0.1-2.6-1.6-4.4-4.1-5c-2.3-0.5-4.5-0.3-6.8,0.4c-0.9,0.3-1.5,0.8-1.2,1.8c0.3,1.1,1.1,1.2,2.1,0.9
		c1.3-0.4,2.6-0.6,3.9-0.4c1.5,0.1,2.5,1,2.8,2.3c0.1,0.7,0.2,1.2-0.9,0.9c-1.9-0.5-3.9-0.5-5.8,0c-2.2,0.6-3.5,2.3-3.4,4.5
		c0.1,2.1,1.3,3.7,3.5,4.3c2.4,0.6,4.5,0.1,6.5-1.7c0.4,1.4,0.9,1.9,2,1.7c1.2-0.2,1.4-1,1.4-2C148,30.4,148.1,27.8,148,25.2z
		 M144.4,31.1c-0.6,1-1.9,1.6-3.4,1.6c-1.7,0-2.8-0.7-3-2c-0.2-1.4,0.7-2.3,2.5-2.7c0.9-0.2,1.7-0.1,2.6,0.1
		C144.9,28.5,145.4,29.6,144.4,31.1z"/>
</g>
</svg>
