<?xml version="1.0" encoding="UTF-8" standalone="no"?>
<svg
   xmlns:dc="http://purl.org/dc/elements/1.1/"
   xmlns:cc="http://creativecommons.org/ns#"
   xmlns:rdf="http://www.w3.org/1999/02/22-rdf-syntax-ns#"
   xmlns:svg="http://www.w3.org/2000/svg"
   xmlns="http://www.w3.org/2000/svg"
   xmlns:sodipodi="http://sodipodi.sourceforge.net/DTD/sodipodi-0.dtd"
   xmlns:inkscape="http://www.inkscape.org/namespaces/inkscape"
   preserveAspectRatio="xMidYMid"
   width="19"
   height="57"
   viewBox="0 0 18.999999 57.000004"
   id="svg2"
   version="1.1"
   inkscape:version="0.48.5 r10040"
   sodipodi:docname="login-icon.svg">
  <metadata
     id="metadata12">
    <rdf:RDF>
      <cc:Work
         rdf:about="">
        <dc:format>image/svg+xml</dc:format>
        <dc:type
           rdf:resource="http://purl.org/dc/dcmitype/StillImage" />
      </cc:Work>
    </rdf:RDF>
  </metadata>
  <sodipodi:namedview
     pagecolor="#ffffff"
     bordercolor="#666666"
     borderopacity="1"
     objecttolerance="10"
     gridtolerance="10"
     guidetolerance="10"
     inkscape:pageopacity="0"
     inkscape:pageshadow="2"
     inkscape:window-width="1280"
     inkscape:window-height="751"
     id="namedview10"
     showgrid="false"
     inkscape:zoom="4.1403509"
     inkscape:cx="-33.733051"
     inkscape:cy="28.5"
     inkscape:window-x="0"
     inkscape:window-y="0"
     inkscape:window-maximized="1"
     inkscape:current-layer="svg2" />
  <defs
     id="defs4">
    <style
       id="style6">.cls-2 { fill: #b2b2b2; }</style>
  </defs>
  <path
     d="M 18.165,0 H 7.005 C 6.542,0 6.169,0.364 6.169,0.815 c 0,0.45 0.372,0.816 0.832,0.816 h 10.33 V 17.37 H 7.003 c -0.46,0 -0.833,0.366 -0.833,0.816 0,0.45 0.372,0.816 0.832,0.816 h 11.164 c 0.46,0 0.834,-0.365 0.834,-0.816 V 0.814 C 19,0.364 18.626,0.001 18.166,0.001 z M 6.505,14.403 c -0.274,0.363 -0.19,0.873 0.184,1.138 0.37,0.265 0.894,0.185 1.164,-0.18 l 4.003,-5.38 c 0.01,-0.016 0.007,-0.036 0.017,-0.05 0.08,-0.128 0.142,-0.267 0.142,-0.427 V 9.497 c 0,-0.16 -0.06,-0.3 -0.142,-0.427 C 11.863,9.054 11.867,9.035 11.856,9.02 L 7.853,3.64 C 7.69,3.42 7.436,3.303 7.177,3.303 7.009,3.303 6.837,3.356 6.689,3.461 6.315,3.726 6.232,4.236 6.504,4.601 l 3.04,4.084 H 0.834 C 0.37,8.684 0,9.048 0,9.5 c 0,0.45 0.372,0.815 0.834,0.815 h 8.71 L 6.503,14.4 z"
     id="path-1"
     class="cls-2"
     inkscape:connector-curvature="0"
     style="fill:#b2b2b2;fill-rule:evenodd" />
  <path
     d="M 18.165,38 H 7.005 c -0.463,0 -0.836,0.364 -0.836,0.815 0,0.45 0.372,0.816 0.832,0.816 h 10.33 V 55.37 H 7.003 c -0.46,0 -0.833,0.366 -0.833,0.816 0,0.45 0.372,0.816 0.832,0.816 h 11.164 c 0.46,0 0.834,-0.365 0.834,-0.816 v -17.37 c 0,-0.45 -0.374,-0.813 -0.834,-0.813 z M 6.505,52.403 c -0.274,0.363 -0.19,0.873 0.184,1.138 0.37,0.265 0.894,0.185 1.164,-0.18 l 4.003,-5.38 c 0.01,-0.016 0.007,-0.035 0.017,-0.05 0.08,-0.128 0.142,-0.267 0.142,-0.427 v -0.007 c 0,-0.16 -0.06,-0.3 -0.142,-0.427 -0.01,-0.016 -0.006,-0.035 -0.017,-0.05 L 7.852,41.64 C 7.689,41.42 7.435,41.303 7.176,41.303 c -0.168,0 -0.34,0.053 -0.488,0.158 -0.374,0.265 -0.457,0.775 -0.185,1.14 l 3.04,4.084 H 0.834 c -0.463,0 -0.835,0.364 -0.835,0.815 0,0.45 0.372,0.815 0.834,0.815 h 8.71 l -3.04,4.087 z"
     id="path-1-2"
     class="cls-2"
     inkscape:connector-curvature="0"
     style="fill:#008329;fill-rule:evenodd;fill-opacity:1" />
  <path
     d="M 18.165,19 H 7.005 c -0.463,0 -0.836,0.364 -0.836,0.815 0,0.45 0.372,0.816 0.832,0.816 h 10.33 V 36.37 H 7.003 c -0.46,0 -0.833,0.366 -0.833,0.816 0,0.45 0.372,0.816 0.832,0.816 h 11.164 c 0.46,0 0.834,-0.365 0.834,-0.816 v -17.37 c 0,-0.45 -0.374,-0.813 -0.834,-0.813 z M 6.505,33.403 c -0.274,0.363 -0.19,0.873 0.184,1.138 0.37,0.265 0.894,0.185 1.164,-0.18 l 4.003,-5.38 c 0.01,-0.016 0.007,-0.035 0.017,-0.05 0.08,-0.128 0.142,-0.267 0.142,-0.427 v -0.007 c 0,-0.16 -0.06,-0.3 -0.142,-0.427 -0.01,-0.016 -0.006,-0.035 -0.017,-0.05 L 7.852,22.64 C 7.689,22.42 7.435,22.303 7.176,22.303 c -0.168,0 -0.34,0.053 -0.488,0.158 -0.374,0.265 -0.457,0.775 -0.185,1.14 l 3.04,4.084 H 0.834 c -0.463,0 -0.835,0.364 -0.835,0.815 0,0.45 0.372,0.815 0.834,0.815 h 8.71 l -3.04,4.087 z"
     id="path-1-2-8"
     class="cls-2"
     inkscape:connector-curvature="0"
     style="fill:#b0e44f;fill-rule:evenodd;fill-opacity:1" />
</svg>
