<svg id="logobar-A-mobile-SM-approved.svg" xmlns="http://www.w3.org/2000/svg" width="416.562" height="91" viewBox="0 0 416.562 91"><defs><style>.cls-1{fill:#b2b2b2;fill-rule:evenodd}</style></defs><path id="logo-instapage.svg" class="cls-1" d="M210.06 123.1a4.385 4.385 0 0 1 4.233-1.746c2.185.372 3.375 1.741 3.465 4.2.076 2.081.034 4.167.015 6.25a1.291 1.291 0 0 1-1.348 1.515 1.324 1.324 0 0 1-1.36-1.612c.011-1.7.019-3.4 0-5.093-.023-1.836-.9-2.837-2.448-2.849-1.6-.013-2.592 1.035-2.625 2.836-.031 1.659 0 3.318-.015 4.977-.011 1.191-.461 1.749-1.362 1.75s-1.344-.564-1.348-1.75c-.009-2.7 0-5.4-.007-8.1 0-.884-.012-1.8 1.077-2.006 1.117-.216 1.549.551 1.723 1.628zm14.415-1.75a7.376 7.376 0 0 1 3.41.9 1.112 1.112 0 1 1-.947 2 6.122 6.122 0 0 0-2.624-.747c-.719.015-1.447.082-1.636.933s.518 1.131 1.116 1.371c.92.371 1.889.624 2.8 1.014 1.72.735 2.386 1.77 2.258 3.35a3.42 3.42 0 0 1-2.9 3.131 7.467 7.467 0 0 1-5.6-1.049 1.144 1.144 0 0 1-.6-1.632 1.047 1.047 0 0 1 1.669-.312 7.2 7.2 0 0 0 2.667 1 3.137 3.137 0 0 0 1.468-.145 1.066 1.066 0 0 0 .814-1 .986.986 0 0 0-.61-1.02c-.552-.258-1.129-.465-1.7-.671-.539-.194-1.1-.324-1.63-.543-1.7-.707-2.467-1.9-2.259-3.457a3.587 3.587 0 0 1 3.057-3.017c.405-.063.829-.069 1.247-.102zm6.985 6.035v-1.967c-.008-.766.242-1.634-.993-1.775a1.119 1.119 0 0 1 .185-1.992.908.908 0 0 0 .815-1.218 4.255 4.255 0 0 1 .028-.923 1.335 1.335 0 1 1 2.664.162 1.915 1.915 0 0 1 0 .347c-.2 1.181.232 1.7 1.458 1.506a2.377 2.377 0 0 1 1.013.111 1.118 1.118 0 0 1-.142 2.162c-.075.014-.152.015-.228.025-.669.092-1.605-.321-1.95.217a4.541 4.541 0 0 0-.145 2.139 102.86 102.86 0 0 0 0 3.239c.028 1.21.412 1.6 1.6 1.576.806-.019 1.518.087 1.587 1.053.065.893-.616 1.117-1.337 1.278-2.854.638-4.475-.6-4.553-3.51-.02-.806-.002-1.615-.002-2.426zm-27.578-1.985c0 2.043-.007 4.086 0 6.13 0 .928-.142 1.747-1.288 1.792-1.126.044-1.439-.725-1.442-1.667q-.02-6.187 0-12.376a1.4 1.4 0 0 1 1.374-1.646c.87-.042 1.338.571 1.346 1.752.02 2.008.01 4.015.01 6.015zm-25.657-.152c0 3.164.011 6.328-.014 9.491 0 .385.308 1.022-.456 1.08a1.2 1.2 0 0 1-1.236-.852 2.574 2.574 0 0 1-.095-.912q-.006-8.8 0-17.594a1.721 1.721 0 0 1 .218-1.111 1.189 1.189 0 0 1 1.275-.587c.519.139.3.649.3.993.015 3.167.008 6.331.008 9.495zm-3.41.1c0 2.466.011 4.932-.012 7.4 0 .367.256.933-.384 1.037a1.115 1.115 0 0 1-1.272-.764 2.912 2.912 0 0 1-.133-1.015q-.014-6.706-.007-13.406a1.8 1.8 0 0 1 .386-1.4 1.109 1.109 0 0 1 1.14-.371c.458.139.272.582.274.895.015 2.542.008 5.085.008 7.628zm21.122-10.4q-6.9-1.094-13.8-2.217c-1.6-.26-2.232.24-2.235 1.866-.008 3.588 0 7.176 0 10.764 0 3.626-.007 7.253 0 10.88 0 1.551.667 2.086 2.171 1.815q6.934-1.252 13.871-2.49c1.52-.272 1.871-.67 1.872-2.222v-16.2c-.002-1.578-.345-1.944-1.879-2.192zm-2.206 18.521c-2.873.424-5.736.922-8.6 1.382-1.315.211-1.739-.156-1.746-1.544-.012-2.625 0-5.251 0-7.877s-.009-5.251 0-7.877c.006-1.409.441-1.731 1.85-1.543 2.766.37 5.536.713 8.307 1.048 1.512.183 1.749.424 1.75 1.965 0 4.17-.032 8.34.021 12.51a1.62 1.62 0 0 1-1.582 1.94zm96.752-10.25c.006-.9-.171-1.66-1.206-1.768s-1.393.594-1.515 1.621c-2.91-2.3-5.738-2.337-7.83-.192a5.919 5.919 0 0 0-.371 7.451 5.186 5.186 0 0 0 3.411 1.95 5.047 5.047 0 0 0 4.832-2.011c.128 3.143-1.165 4.483-4 4.387a7.423 7.423 0 0 1-2.972-.786 1.144 1.144 0 0 0-1.758.445c-.367.819.137 1.272.85 1.6a10.382 10.382 0 0 0 4.916.893c3.758-.175 5.6-2.054 5.632-5.83.022-2.579-.009-5.17.011-7.756zm-6.044 6.807a3.234 3.234 0 1 1 .012-6.465 3.339 3.339 0 0 1 3.418 3.186 3.3 3.3 0 0 1-3.43 3.283zm-21.778-6.983a5.2 5.2 0 0 0-3.635-1.751 4.8 4.8 0 0 0-4.166 2.035c-.08-1.135-.381-1.984-1.551-1.872-1.191.115-1.228 1.059-1.226 1.992q.009 5.906 0 11.812a1.385 1.385 0 1 0 2.724 0c-.01-1.145 0-2.29 0-3.656 2.646 2.406 5.564 2.467 7.67.343a6.9 6.9 0 0 0 .184-8.899zm-4.527 8.126a3.8 3.8 0 0 1 0-7.544 3.8 3.8 0 0 1 0 7.548zm38.009-2.794c1.071.029 2.144.008 3.217.008 1.072 0 2.145.023 3.217-.007a1.317 1.317 0 0 0 1.438-1.436 5.707 5.707 0 0 0-3.908-5.428 5.635 5.635 0 0 0-6.676 2.958 6.135 6.135 0 0 0 9.307 7.686 1.116 1.116 0 0 0 .363-1.611 1.066 1.066 0 0 0-1.7-.144 5.244 5.244 0 0 1-1.2.658 3.4 3.4 0 0 1-4.555-1.913c-.187-.546-.146-.784.497-.767zm-.589-2.49a3.034 3.034 0 0 1 2.9-2.361 2.834 2.834 0 0 1 2.8 2.283c.11.494.1.807-.555.763-.762-.05-1.529-.011-2.294-.012s-1.532-.022-2.3.008c-.523.024-.668-.166-.551-.677zm-46.241-.11a4.118 4.118 0 0 0-3.721-4.276 9.681 9.681 0 0 0-4.64.4c-.746.263-1.421.613-1.147 1.532.268.9.992.939 1.779.66a6.69 6.69 0 0 1 2.941-.312 2.34 2.34 0 0 1 2.207 2c.089.561 0 .751-.645.587a8.584 8.584 0 0 0-4.643 0 3.5 3.5 0 0 0-2.663 3.478 3.458 3.458 0 0 0 2.693 3.447 5.185 5.185 0 0 0 5.222-1.347 1.271 1.271 0 0 0 1.581 1.366 1.252 1.252 0 0 0 1.063-1.515c-.014-2.006.027-4.012-.027-6.016zm-2.862 4.443c-.625.959-1.594 1.261-3.1 1.312a1.806 1.806 0 0 1-1.88-1.579c-.121-1.14.521-1.808 1.94-2.1a5.625 5.625 0 0 1 2.046.058c1.381.224 1.78 1.11.994 2.313zm29.751-4.637a3.944 3.944 0 0 0-3.22-3.965 9.359 9.359 0 0 0-5.3.339 1.144 1.144 0 0 0-.966 1.446 1.114 1.114 0 0 0 1.646.73 7.2 7.2 0 0 1 3.05-.356 2.306 2.306 0 0 1 2.208 1.855c.113.57.135.956-.7.724a8.257 8.257 0 0 0-4.531 0 3.505 3.505 0 0 0-2.687 3.579 3.466 3.466 0 0 0 2.782 3.374 5.116 5.116 0 0 0 5.084-1.338c.341 1.14.74 1.468 1.59 1.348.939-.132 1.1-.793 1.092-1.6-.029-2.045.023-4.091-.05-6.132zm-2.831 4.635a3.084 3.084 0 0 1-2.674 1.288c-1.358.014-2.213-.555-2.325-1.547-.128-1.131.52-1.81 1.934-2.1a5.576 5.576 0 0 1 2.045.056c1.387.218 1.778 1.095 1.02 2.307z" transform="translate(-173 -112)"/><path id="logo-dropbox.svg" class="cls-1" d="M503.478 117.534h5.789c4.957 0 8.091 3.153 8.091 8.072s-3.118 8.072-8.091 8.072h-5.789v-16.144zm5.661 13.2c3.118 0 4.829-1.97 4.829-5.108 0-3.153-1.711-5.123-4.829-5.123h-2.271v10.231h2.271zm17-5.581a3.28 3.28 0 0 0-1.663-.394 2.16 2.16 0 0 0-2.27 1.656v7.283h-3.294v-11.766h3.309v1.151a3.089 3.089 0 0 1 2.671-1.419 3.31 3.31 0 0 1 1.247.2v3.279zm6.6 8.813c-3.47 0-5.852-2.522-5.852-6.132 0-3.626 2.382-6.165 5.852-6.165s5.836 2.523 5.836 6.165c.001 3.605-2.365 6.127-5.835 6.127zm0-9.522c-1.663 0-2.558 1.419-2.558 3.39 0 1.939.911 3.373 2.558 3.373s2.558-1.418 2.558-3.373c.003-1.976-.91-3.395-2.557-3.395zm10.569 13.606H540v-16.118h3.31v.978a4.13 4.13 0 0 1 2.99-1.23c3.47 0 5.437 2.838 5.437 6.164s-1.967 6.133-5.437 6.133a4.13 4.13 0 0 1-2.99-1.23v5.3zm0-8.293a2.5 2.5 0 0 0 2.239 1.372c1.791 0 2.862-1.419 2.862-3.3 0-1.892-1.071-3.311-2.862-3.311a2.524 2.524 0 0 0-2.239 1.371v3.863zm13.192 3.941h-3.342v-17.11h3.342v6.322a4.13 4.13 0 0 1 2.99-1.23c3.47 0 5.421 2.791 5.421 6.164s-1.951 6.133-5.421 6.133a4.13 4.13 0 0 1-2.99-1.23v.946zm0-3.941a2.433 2.433 0 0 0 2.239 1.372c1.79 0 2.862-1.419 2.862-3.3 0-1.892-1.072-3.311-2.862-3.311a2.524 2.524 0 0 0-2.239 1.371v3.863zm15.446 4.241c-3.47 0-5.852-2.523-5.852-6.133 0-3.626 2.382-6.164 5.852-6.164s5.837 2.522 5.837 6.164c.001 3.605-2.383 6.128-5.836 6.128zm0-9.522c-1.663 0-2.558 1.418-2.558 3.389 0 1.939.911 3.374 2.558 3.374s2.559-1.419 2.559-3.374c.001-1.976-.911-3.394-2.558-3.394zm13.272 3.153l4.349 6.085h-3.661l-2.559-3.689-2.59 3.689h-3.47l4.3-6.007-4.045-5.754h3.661l2.3 3.342 2.335-3.342h3.469zM478.6 112l-8.619 5.471 5.965 4.745 8.666-5.281zm-8.619 14.851l8.619 5.581 6.012-4.934-8.666-5.282zm14.629.649l6.012 4.934 8.587-5.518-5.948-4.7zm14.6-9.98l-8.588-5.52-6.012 4.935 8.651 5.281zm-14.583 11.036l-6.028 4.934-2.59-1.655v1.86l8.618 5.093 8.6-5.093v-1.86l-2.575 1.655z" transform="translate(-173 -112)"/><path id="logo-airbnb.svg" class="cls-1" d="M389.525 119.747a1.938 1.938 0 0 1-3.875 0 1.9 1.9 0 0 1 1.937-1.916 1.942 1.942 0 0 1 1.938 1.916zm-7.988 3.863v.472a3.737 3.737 0 0 0-2.89-1.18 5.838 5.838 0 0 0 0 11.676 3.632 3.632 0 0 0 2.89-1.209v.5a.406.406 0 0 0 .418.413h2.413V123.2h-2.413a.425.425 0 0 0-.418.413zm0 7.106a2.973 2.973 0 0 1-2.414 1.209 3.189 3.189 0 1 1 0-6.369 3.054 3.054 0 0 1 2.414 1.209v3.951zm4.62-7.519h2.861v11.087h-2.861V123.2zm42.737-.3a3.738 3.738 0 0 0-2.891 1.18v-6.217h-2.861v16.424h2.414a.425.425 0 0 0 .418-.413v-.5a3.7 3.7 0 0 0 2.89 1.209 5.838 5.838 0 0 0 .03-11.676zm-.476 8.993a2.929 2.929 0 0 1-2.418-1.204v-3.951a3.248 3.248 0 0 1 2.415-1.208 3.189 3.189 0 1 1 0 6.368zm-6.766-4.187v6.6h-2.861v-6.28c0-1.828-.6-2.565-2.2-2.565a3.214 3.214 0 0 0-2.325 1.09v7.726H411.4V123.2h2.265a.424.424 0 0 1 .417.413v.472a4.132 4.132 0 0 1 3.04-1.18 4.667 4.667 0 0 1 3.129 1.062c1.014.825 1.4 1.887 1.4 3.744zm-17.2-4.806a3.738 3.738 0 0 0-2.891 1.18v-6.217H398.7v16.424h2.414a.424.424 0 0 0 .417-.413v-.5a3.7 3.7 0 0 0 2.891 1.209 5.838 5.838 0 0 0 .03-11.676zm-.477 8.993a2.927 2.927 0 0 1-2.414-1.209v-3.951a3.247 3.247 0 0 1 2.414-1.208 3.189 3.189 0 1 1 0 6.368zm-7.745-8.99a4.6 4.6 0 0 1 1.312.148v2.624a3.858 3.858 0 0 0-3.875.884v7.755h-2.861V123.2h2.414a.424.424 0 0 1 .417.413v.472a3.936 3.936 0 0 1 2.593-1.18zm-29.713 10.379c-.149-.354-.3-.737-.448-1.061-.238-.531-.476-1.033-.685-1.5l-.03-.03a309.473 309.473 0 0 0-6.586-13.327l-.09-.177a60.868 60.868 0 0 1-.715-1.385 8.43 8.43 0 0 0-1.073-1.622 4.829 4.829 0 0 0-3.785-1.828 5.023 5.023 0 0 0-3.815 1.769 10.257 10.257 0 0 0-1.072 1.621c-.239.472-.477.944-.716 1.386l-.089.177c-2.3 4.423-4.53 8.905-6.587 13.327l-.03.059c-.208.472-.446.973-.685 1.5q-.224.486-.447 1.061a6.576 6.576 0 0 0-.358 3.185 6.277 6.277 0 0 0 3.875 4.894 6.164 6.164 0 0 0 2.414.472 6.754 6.754 0 0 0 .775-.059 7.94 7.94 0 0 0 2.98-1 15.075 15.075 0 0 0 3.7-3.067 15.625 15.625 0 0 0 3.695 3.067 7.94 7.94 0 0 0 2.98 1 6.754 6.754 0 0 0 .775.059 6.069 6.069 0 0 0 2.415-.472 6.264 6.264 0 0 0 3.874-4.894 5.522 5.522 0 0 0-.268-3.155zm-13.441 1.533a14.5 14.5 0 0 1-3.011-5.484 4.7 4.7 0 0 1-.089-1.8 2.831 2.831 0 0 1 .477-1.238 3.175 3.175 0 0 1 2.623-1.3 3.062 3.062 0 0 1 2.622 1.3 2.831 2.831 0 0 1 .477 1.238 4.714 4.714 0 0 1-.089 1.8 14.939 14.939 0 0 1-3.01 5.484zm11.891 1.386a4.392 4.392 0 0 1-2.712 3.45 4.56 4.56 0 0 1-2.265.295 5.92 5.92 0 0 1-2.265-.767 13.9 13.9 0 0 1-3.4-2.86 16.57 16.57 0 0 0 3.606-6.516 7.293 7.293 0 0 0 .149-2.507 4.747 4.747 0 0 0-.8-2 5.04 5.04 0 0 0-4.2-2.094 5.116 5.116 0 0 0-4.2 2.094 4.747 4.747 0 0 0-.8 2 6.056 6.056 0 0 0 .149 2.507 17.049 17.049 0 0 0 3.606 6.545 13.327 13.327 0 0 1-3.4 2.86 5.886 5.886 0 0 1-2.265.767 4.814 4.814 0 0 1-2.265-.295 4.389 4.389 0 0 1-2.712-3.45 4.834 4.834 0 0 1 .268-2.3c.09-.3.239-.59.388-.944.208-.472.447-.973.685-1.474l.03-.059a320.485 320.485 0 0 1 6.557-13.239l.089-.177c.238-.442.477-.914.716-1.356a6.422 6.422 0 0 1 .834-1.3 3.15 3.15 0 0 1 4.768 0 6.426 6.426 0 0 1 .835 1.3c.238.442.477.914.715 1.356l.089.177a386.797 386.797 0 0 1 6.527 13.268v.03c.239.472.447 1 .686 1.474.149.354.3.649.387.944a4.924 4.924 0 0 1 .209 2.27z" transform="translate(-173 -112)"/><path id="logo-zendesk.svg" class="cls-1" d="M267.325 182.817a8.086 8.086 0 0 1-3.887 1.013 7.246 7.246 0 0 1-2.419-.422 17.08 17.08 0 0 1-3.455 2.364 7.789 7.789 0 0 0 4.665 3.292 6.871 6.871 0 0 0 1.9.254 8.141 8.141 0 0 0 3.8-.929 7.033 7.033 0 0 0 .259-1.942 5.981 5.981 0 0 0-.863-3.63zm-1.3-9.455c-.086 0-.173-.085-.259-.085.09 0 .177.085.263.085zm-.259 0a7.439 7.439 0 0 1-1.814 3.883 2.823 2.823 0 0 1 .086.844 7.016 7.016 0 0 1-2.073 4.559c.346 0 .691.085 1.037.085a7.675 7.675 0 0 0 4.75-1.6 7.986 7.986 0 0 0 2.937-4.812 7.955 7.955 0 0 0-4.491-2.871c-.259-.084-.346-.169-.432-.084zm-1.209-1.267a7.542 7.542 0 0 0-2.073-5.234h-.084a7.4 7.4 0 0 0-4.923 1.942 7.232 7.232 0 0 1 1.9 5.15v.422a3.6 3.6 0 0 1 .95-.085h.087a3.669 3.669 0 0 1 3.109 1.689 8.407 8.407 0 0 0 1.038-3.879zm-13.906-5.065h-.251a7.209 7.209 0 0 0-1.986 5.065v.085h.259a8.039 8.039 0 0 1 5.442 2.11 3.566 3.566 0 0 1 2.936 1.858 3.012 3.012 0 0 1 1.382-1.351v-.253a7.443 7.443 0 0 0-2.591-5.657 8.133 8.133 0 0 0-5.187-1.857zm2.418 7.345zm-.259 0a7.619 7.619 0 0 0-3.887-1.013 8.122 8.122 0 0 0-1.382.084 7.2 7.2 0 0 0-4.837 2.955 7.829 7.829 0 0 0 2.851 4.728 6.932 6.932 0 0 1 4.491-2.786v-.253a3.6 3.6 0 0 1 2.768-3.715zm-6.737 8.442a7.42 7.42 0 0 0-.864 3.546 7.66 7.66 0 0 0 .259 2.026 8.058 8.058 0 0 0 3.714.929 7.869 7.869 0 0 0 1.9-.254 8.137 8.137 0 0 1-.26-2.026 7.714 7.714 0 0 1 1.469-4.474 8.092 8.092 0 0 1-1.987-3.293 7.591 7.591 0 0 0-4.227 3.546zm6.478 7.007l-.087.085zm4.146 3.884a7.675 7.675 0 0 0 3.973-3.884 7.169 7.169 0 0 1-4.146-4.052 18.4 18.4 0 0 1-3.714-2.533 8.213 8.213 0 0 0-.864 3.462 6.5 6.5 0 0 0 .691 3.039 7.393 7.393 0 0 0 4.063 3.968zm-4.06-3.884zm28.935-5.234l-6.737 7.767h5.787a1.1 1.1 0 1 1 0 2.195h-8.465a1.189 1.189 0 0 1-.777-2.026l6.737-7.767h-5.873a1.1 1.1 0 1 1 0-2.195h8.291a1.257 1.257 0 0 1 1.3 1.266.712.712 0 0 1-.259.76zm13.561 4.812h-8.81a3.526 3.526 0 0 0 3.714 3.208 5.442 5.442 0 0 0 3.714-1.519.993.993 0 0 1 .691-.254 1.07 1.07 0 0 1 .863.422.948.948 0 0 1 .26.676 1.346 1.346 0 0 1-.432.929 7.389 7.389 0 0 1-5.183 2.11 6.4 6.4 0 0 1-6.478-6.332 6.324 6.324 0 0 1 6.392-6.331 6.128 6.128 0 0 1 6.219 6.331.873.873 0 0 1-.946.758zm-5.269-4.9a3.312 3.312 0 0 0-3.455 3.039h7a3.459 3.459 0 0 0-3.541-3.035zm34.2 10.3a1.349 1.349 0 0 1-1.382-1.35v-.676a4.567 4.567 0 0 1-4.06 2.111 6.335 6.335 0 0 1 0-12.664 4.542 4.542 0 0 1 4.06 2.111v-7.176a1.382 1.382 0 0 1 2.763 0v16.294a1.348 1.348 0 0 1-1.373 1.353zm-5.1-10.215a3.977 3.977 0 0 0 0 7.936 3.977 3.977 0 0 0 .011-7.933zm20.644 4.812h-8.81a3.526 3.526 0 0 0 3.714 3.208 5.442 5.442 0 0 0 3.714-1.519.993.993 0 0 1 .691-.254 1.4 1.4 0 0 1 .95.422.947.947 0 0 1 .259.676 1.346 1.346 0 0 1-.432.929 7.388 7.388 0 0 1-5.182 2.11 6.4 6.4 0 0 1-6.478-6.332 6.323 6.323 0 0 1 6.391-6.331 6.128 6.128 0 0 1 6.219 6.331.965.965 0 0 1-1.025.761zm-5.269-4.9a3.312 3.312 0 0 0-3.455 3.039h7a3.459 3.459 0 0 0-3.534-3.032zm13.215 10.384a10.255 10.255 0 0 1-4.578-1.182 1.3 1.3 0 0 1-.691-1.013c0-.169.086-.254.086-.422a.992.992 0 0 1 .864-.676 1.64 1.64 0 0 1 .605.169 7.129 7.129 0 0 0 3.455 1.013c1.382 0 2.936-.422 2.936-1.435 0-.844-.777-1.1-3.627-2.111-2.419-.844-3.628-1.857-3.628-3.545 0-2.026 2.073-3.377 4.837-3.377a9.477 9.477 0 0 1 4.232.928 1.144 1.144 0 0 1 .778 1.013.745.745 0 0 1-.087.423 1.2 1.2 0 0 1-1.036.759.8.8 0 0 1-.432-.084 7.2 7.2 0 0 0-3.282-.76c-1.469 0-2.419.338-2.419 1.182 0 .929.778 1.1 2.851 1.773 2.591.844 4.405 1.688 4.405 3.8.097 1.862-1.803 3.552-5.258 3.552zm18.052-.085a1.609 1.609 0 0 1-1.037-.422l-4.664-5.234-1.382 1.1v3.208a1.382 1.382 0 0 1-2.764 0v-16.204a1.382 1.382 0 0 1 2.764 0v9.877l5.874-4.474a1.414 1.414 0 0 1 .777-.254 1.242 1.242 0 0 1 1.037.507 1.5 1.5 0 0 1 .345.76 1.2 1.2 0 0 1-.518 1.013l-3.973 3.039 4.577 5.15a1.478 1.478 0 0 1 .346.844 1.708 1.708 0 0 1-1.371 1.097zm-61.238-12.663a5.761 5.761 0 0 0-5.874 5.741v5.656a1.382 1.382 0 0 0 2.764 0v-5.572c0-1.857 1.036-3.377 3.109-3.377a3.093 3.093 0 0 1 3.11 3.377v5.572a1.382 1.382 0 0 0 2.764 0v-5.656a5.761 5.761 0 0 0-5.862-5.734zm59.424-4.981a1.382 1.382 0 1 1 1.382 1.351 1.349 1.349 0 0 1-1.374-1.344zm2.418 0a1.036 1.036 0 0 0-2.072 0 1.038 1.038 0 1 0 2.083.007zm-1.641.591v-1.175a.184.184 0 0 1 .173-.169h.518a.433.433 0 0 1 .518.422.462.462 0 0 1-.259.422l.173.422v.085a.184.184 0 0 1-.173.169.3.3 0 0 1-.172-.085l-.26-.422h-.259v.338a.184.184 0 0 1-.172.169.3.3 0 0 1-.076-.169zm.864-.844a.216.216 0 0 0-.259-.169h-.259v.253h.259c.184.091.27.007.27-.077z" transform="translate(-173 -112)"/><path id="logo-juniper_networks.svg" class="cls-1" d="M469.145 197.991h.573l2.957 4.064v-4.064h.506v4.929h-.481l-3.048-4.184v4.184h-.507v-4.929zm5.3 0h3.269v.5h-2.742v1.629h2.675v.492h-2.675v1.83h2.769v.479h-3.3v-4.929zm5.917.5H478.5v-.5h4.236v.5h-1.855v4.431h-.527v-4.432zm3.022-.5h.54l1.3 4.076 1.329-4.076H487l1.321 4.076 1.307-4.076h.507l-1.588 4.962h-.447l-1.334-4.1-1.328 4.1h-.46zm7.23 2.461a2.489 2.489 0 1 1 2.478 2.548 2.225 2.225 0 0 1-2.482-2.548m4.45.007a1.963 1.963 0 1 0-1.968 2.056 1.775 1.775 0 0 0 1.968-2.056m3.6.452h-1.481v2.01h-.514v-4.929h2.135c1.147 0 1.668.458 1.668 1.436a1.316 1.316 0 0 1-1.268 1.464l1.193 2.029h-.56zm.146-.479a.918.918 0 0 0 1.134-.99c0-.766-.419-.965-1.153-.965h-1.608v1.955h1.621zm4.283-.126l-.988 1.077v1.538h-.513v-4.929h.512v2.72l2.5-2.72h.607l-1.774 1.935 2.015 2.994h-.594zm2.8 2.115l.266-.4a3.206 3.206 0 0 0 1.768.5c1.021 0 1.475-.286 1.475-.965 0-.7-.588-.8-1.475-.957-1.066-.187-1.788-.367-1.788-1.363 0-.953.614-1.325 1.788-1.325a3 3 0 0 1 1.721.44l-.28.425a2.711 2.711 0 0 0-1.441-.385c-.887 0-1.266.246-1.266.831 0 .625.512.745 1.393.9 1.081.193 1.86.352 1.86 1.41 0 .978-.626 1.45-1.973 1.45a3.577 3.577 0 0 1-2.048-.565m9.189-24.8c-6.949 0-7.244 3.1-7.244 7.485v10.753h1.639V185.1c0-3.3-.131-5.948 5.605-5.948a14.286 14.286 0 0 1 1.651.089v-1.556a18.592 18.592 0 0 0-1.651-.07m-81.049 11.244v-10.88h1.671V188.9c0 3.138-.032 5.786 5.736 5.786 5.736 0 5.605-2.648 5.605-5.95v-10.757h1.639v10.752c0 4.381-.3 7.486-7.244 7.486-6.982 0-7.408-3.105-7.408-7.354m32.076-3.89v10.884h-1.671v-10.916c0-3.138.032-5.785-5.736-5.785-5.737 0-5.605 2.647-5.605 5.948v10.753h-1.639V185.1c0-4.38.3-7.485 7.244-7.485 6.981 0 7.407 3.1 7.407 7.354m3.041-6.961h1.605v17.845h-1.605v-17.841zm4.61 0h8.377c4.155 0 6.039 2.059 6.039 5.72 0 3.684-1.859 5.924-6.061 5.924h-6.751v6.2h-1.6v-17.84zm8.4 10.04c2.894 0 4.333-1.407 4.333-4.249s-1.551-4.19-4.4-4.19h-6.726v8.439h6.8zm7.881-1.183c0-5.262 1.509-9.315 8.262-9.315 6.981 0 7.209 4.673 7.178 9.609h-13.831c.032 4.347 1.113 7.583 6.783 7.583a8.582 8.582 0 0 0 5.868-1.9l.917 1.21a10.538 10.538 0 0 1-6.785 2.157c-7.079 0-8.391-4.086-8.391-9.348m1.64-1.21h12.193c-.164-3.562-.393-6.6-5.606-6.6-5.014 0-6.39 2.712-6.587 6.6m-67.713 14.079c6.948 0 7.243-3.1 7.243-7.485v-14.266h-1.639v14.266c0 3.3.131 5.949-5.6 5.949-.218 0-.423-.006-.624-.014v1.541c.2.006.409.009.624.009m89.095-3.8a1.128 1.128 0 1 1 1.13-1.128 1.131 1.131 0 0 1-1.13 1.128m0-2.11a.983.983 0 1 0 .984.982.985.985 0 0 0-.984-.982m.073 1.132h-.363v.5h-.173v-1.3h.579a.369.369 0 0 1 .456.39.355.355 0 0 1-.314.395l.293.511h-.187zm.04-.161a.224.224 0 0 0 .28-.241c0-.187-.1-.23-.285-.23h-.4v.48h.4z" transform="translate(-173 -112)"/></svg>