<svg xmlns="http://www.w3.org/2000/svg" viewBox="0 0 492.67 405.92"><defs><style>.cls-1,.cls-23,.cls-26,.cls-4,.cls-7,.cls-8{fill:none}.cls-2{fill:#9dedff}.cls-3{fill:#00e6ff}.cls-26,.cls-4{stroke:#f2f2f2}.cls-10,.cls-13,.cls-14,.cls-15,.cls-18,.cls-21,.cls-22,.cls-23,.cls-26,.cls-4,.cls-6,.cls-7,.cls-8,.cls-9{stroke-linecap:round}.cls-10,.cls-13,.cls-14,.cls-15,.cls-18,.cls-21,.cls-22,.cls-23,.cls-4,.cls-6,.cls-7,.cls-8,.cls-9{stroke-linejoin:round}.cls-4{stroke-width:3.25px}.cls-15,.cls-5{fill:#ccc}.cls-6{fill:#b0e650}.cls-15,.cls-18,.cls-21,.cls-6,.cls-7,.cls-9{stroke:#7d7d7d}.cls-15,.cls-18,.cls-21,.cls-22,.cls-26,.cls-6,.cls-7,.cls-8,.cls-9{stroke-width:3.5px}.cls-10,.cls-13,.cls-14,.cls-8{stroke:#909090}.cls-19,.cls-22,.cls-9{fill:#fff}.cls-10{fill:#c8ec84}.cls-10,.cls-13,.cls-14{stroke-width:3.75px}.cls-11{fill:#6fda44}.cls-12{fill:#9ae57c}.cls-13{fill:#b7eca1}.cls-14{fill:#93e373}.cls-16{fill:#bebebe}.cls-17,.cls-21{fill:#f2f2f2}.cls-18{fill:url(#Plaid_3_Color_2)}.cls-20{fill:#7d7d7d}.cls-22,.cls-23{stroke:#b2b2b2}.cls-23{stroke-width:3.63px}.cls-24{fill:#b0e44f}.cls-25{fill:#b2b2b2}.cls-26{stroke-miterlimit:10}</style><pattern id="Plaid_3_Color_2" width="72" height="72" patternTransform="translate(398.82 142.46)" patternUnits="userSpaceOnUse" viewBox="0 0 72 72"><path class="cls-1" d="M0 0h72v72H0z"/><path class="cls-2" d="M69 68h78v8H69zm-1 1h8v78h-8z"/><path class="cls-3" d="M68 68h8v8h-8z"/><path class="cls-2" d="M-3 68h78v8H-3zm35 1h8v78h-8zm18 0h8v78h-8zm18 0h8v78h-8zm-54 0h8v78h-8zm-18 0h8v78h-8z"/><path class="cls-3" d="M-4 68h8v8h-8zm18 0h8v8h-8zm18 0h8v8h-8zm18 0h8v8h-8zm18 0h8v8h-8z"/><path class="cls-2" d="M-75 68H3v8h-78zm71 1h8v78h-8z"/><path class="cls-3" d="M-4 68h8v8h-8z"/><path class="cls-2" d="M69 32h78v8H69zm0-18h78v8H69zm0-18h78v8H69zm0 54h78v8H69zm0 18h78v8H69zM68-3h8v78h-8z"/><path class="cls-3" d="M68-4h8v8h-8zm0 18h8v8h-8zm0 18h8v8h-8zm0 18h8v8h-8zm0 18h8v8h-8z"/><path class="cls-2" d="M-3 32h78v8H-3zm0-18h78v8H-3zm0-18h78v8H-3zm0 54h78v8H-3zm0 18h78v8H-3zM32-3h8v78h-8zm18 0h8v78h-8zm18 0h8v78h-8zM14-3h8v78h-8zM-4-3h8v78h-8z"/><path class="cls-3" d="M-4-4h8v8h-8zm18 0h8v8h-8zm18 0h8v8h-8zm18 0h8v8h-8zm18 0h8v8h-8zM-4 14h8v8h-8zm18 0h8v8h-8zm18 0h8v8h-8zm18 0h8v8h-8zm18 0h8v8h-8zM-4 32h8v8h-8zm18 0h8v8h-8zm18 0h8v8h-8zm18 0h8v8h-8zm18 0h8v8h-8zM-4 50h8v8h-8zm18 0h8v8h-8zm18 0h8v8h-8zm18 0h8v8h-8zm18 0h8v8h-8zM-4 68h8v8h-8zm18 0h8v8h-8zm18 0h8v8h-8zm18 0h8v8h-8zm18 0h8v8h-8z"/><path class="cls-2" d="M-75 32H3v8h-78zm0-18H3v8h-78zm0-18H3v8h-78zm0 54H3v8h-78zm0 18H3v8h-78zM-4-3h8v78h-8z"/><path class="cls-3" d="M-4-4h8v8h-8zm0 18h8v8h-8zm0 18h8v8h-8zm0 18h8v8h-8zm0 18h8v8h-8z"/><path class="cls-2" d="M69-4h78v8H69zm-1-71h8V3h-8z"/><path class="cls-3" d="M68-4h8v8h-8z"/><path class="cls-2" d="M-3-4h78v8H-3zm35-71h8V3h-8zm18 0h8V3h-8zm18 0h8V3h-8zm-54 0h8V3h-8zm-18 0h8V3h-8z"/><path class="cls-3" d="M-4-4h8v8h-8zm18 0h8v8h-8zm18 0h8v8h-8zm18 0h8v8h-8zm18 0h8v8h-8z"/><path class="cls-2" d="M-75-4H3v8h-78zm71-71h8V3h-8z"/><path class="cls-3" d="M-4-4h8v8h-8z"/></pattern></defs><title>16-0412_HIW</title><path class="cls-4" d="M247.88 398.72a184.85 184.85 0 0 1-185-185m232.68-178.9a185 185 0 0 1 137.37 178.85 186.61 186.61 0 0 1-1.88 26.5"/><path class="cls-5" d="M435.55 386.43l-.28-14.65c-.35-.93 2-48.66 1-48.66h-6.83a7.23 7.23 0 0 1-5.17-2.14l-17.79-17.64a14.32 14.32 0 0 0-10.15-4.18h-35.08a2.38 2.38 0 0 0-2 1.14c-.17.27-5.2 1.46 2.18 8.83 5.76 5.76 19.52 4.83 25.64 4.08l7 8.69-72 .32c-5.59 0-12.42 2.27-12.42 7.87 0 2 2.85 6.08 3.82 7.63h-2.11c-5.59 0-13.44 2.91-13.44 8.5 0 3.94 3.9 5.7 7.18 7.38-1.47 1.76-4 7.32-4 9.79 0 5.59 7.84 6.86 13.44 6.86h7.57c-1 1.58-3.24 6.73-3.24 8.73 0 5.59 4.55 6.86 10.15 6.86h8.54l98 .57"/><path class="cls-6" d="M484.06 387.2a4.1 4.1 0 0 0 4.11-4.1v-58.38a4.1 4.1 0 0 0-4.1-4.1h-30.43v66.64z"/><path class="cls-7" d="M345.63 337.83H306a8 8 0 0 0-8 8 8 8 0 0 0 8 8h58.66m-15.74.08h-39.67a8 8 0 0 0-8 8 8 8 0 0 0 8 8h58.66m-3.29-32.05H317a8 8 0 0 1-8-8 8 8 0 0 1 8-8l74.22-.34M356.6 370h-29.28a8 8 0 0 0-8 8 8 8 0 0 0 8 8l107.41.34"/><path class="cls-8" d="M391.61 350.32a17.91 17.91 0 0 1 0-25.33l2.6-2.6-7.14-8.87a1.67 1.67 0 0 0-1.4-.48c-3.73.48-19.36 2.12-24.94-3.46-6.35-6.35-3.12-11.66-3.12-11.66h36.32a12.45 12.45 0 0 1 8.77 3.61l18.41 18.26a10 10 0 0 0 7.1 2.93h7.07"/><path class="cls-9" d="M453.64 321.68v68.85h-18.37v-74.2h18.37v68.86"/><path class="cls-10" d="M-246.164 338.828l23.546 131.783-54.448 9.73-23.545-131.783z"/><path class="cls-11" d="M379.7 325.67v-.08A22.75 22.75 0 0 0 335 334v.08a22.78 22.78 0 0 0 26.5 18.14 22.77 22.77 0 0 0 18.2-26.55z"/><path class="cls-12" d="M349.56 340.61l-1-5.54a1.2 1.2 0 0 1 1-1.4l2.44-.46c1.85 3.31 6.16 5.2 10.74 4.33 5.52-1 9.28-5.65 8.4-10.3s-6.06-7.56-11.58-6.52c-4.55.86-7.86 4.15-8.4 7.88l-2.46.47a1.2 1.2 0 0 1-1.4-1l-1.1-5.83a5.76 5.76 0 0 0-6.73-4.59L338 318a22.57 22.57 0 0 0-3 16v.08a22.63 22.63 0 0 0 8.28 13.61l1.71-.32a5.76 5.76 0 0 0 4.57-6.76z"/><path class="cls-13" d="M372.64 258.82l-17.63 3.15 20.69 13.94-3.06-17.09z"/><path class="cls-14" d="M395.4 390.6l-19.1 3.56 16.58-22.05 2.52 18.49zm-53.46 9.88l17.64-3.15-20.69-13.94 3.05 17.09z"/><path class="cls-13" d="M319.19 268.7l19.1-3.56-16.58 22.05-2.52-18.49z"/><path class="cls-15" d="M391.61 350.32a17.91 17.91 0 0 1 0-25.33l2.6-2.6-7.14-8.87a1.67 1.67 0 0 0-1.4-.48c-3.73.48-19.36 2.12-24.94-3.46-6.35-6.35-3.12-11.66-3.12-11.66h36.32a12.45 12.45 0 0 1 8.77 3.61l18.41 18.26a10 10 0 0 0 7.1 2.93h7.07"/><path class="cls-16" d="M444.67 329.64c3.38 0 3.38-5.25 0-5.25s-3.38 5.25 0 5.25z"/><path class="cls-17" d="M58.66 151.86l98-.57h8.54c5.59 0 10.15-1.26 10.15-6.86 0-2-2.24-7.16-3.24-8.73h7.57c5.59 0 13.44-1.26 13.44-6.86 0-2.47-2.53-8-4-9.79 3.28-1.68 7.18-3.45 7.18-7.38 0-5.59-7.84-8.5-13.44-8.5h-2.11c1-1.56 3.82-5.67 3.82-7.63 0-5.59-6.83-7.87-12.42-7.87l-72-.32 7-8.69c6.12.75 19.88 1.69 25.64-4.08 7.37-7.37 2.34-8.56 2.18-8.83a2.38 2.38 0 0 0-2-1.14H97.89a14.32 14.32 0 0 0-10.15 4.18L70 86.44a7.23 7.23 0 0 1-5.17 2.14H58c-1 0 1.34 47.72 1 48.66l-.28 14.65"/><path class="cls-18" d="M10.16 155.63a4.1 4.1 0 0 1-4.16-4.1V87.15a4.1 4.1 0 0 1 4.1-4.1h45.49v72.64z"/><path class="cls-7" d="M148.59 103.27h39.67a8 8 0 0 1 8 8 8 8 0 0 1-8 8H129.6m15.7.07H185a8 8 0 0 1 8 8 8 8 0 0 1-8 8h-58.69m3.29-32.05h47.57a8 8 0 0 0 8-8 8 8 0 0 0-8-8L103 86.88m34.62 48.52h29.27a8 8 0 0 1 8 8 8 8 0 0 1-8 8l-107.41.34"/><path class="cls-8" d="M102.61 115.75a17.91 17.91 0 0 0 0-25.33l-2.6-2.6 7.14-8.87a1.67 1.67 0 0 1 1.4-.48c3.73.48 19.36 2.12 24.94-3.46 6.35-6.35 3.12-11.66 3.12-11.66h-36.32A12.45 12.45 0 0 0 91.53 67L73.11 85.22A10 10 0 0 1 66 88.15h-7.07"/><circle class="cls-19" cx="43.47" cy="143.61" r="4"/><path class="cls-20" d="M43.47 141.11a2.5 2.5 0 1 1-2.5 2.5 2.5 2.5 0 0 1 2.5-2.5m0-3a5.5 5.5 0 1 0 5.5 5.5 5.51 5.51 0 0 0-5.5-5.5z"/><path class="cls-21" d="M102.61 115.75c4.41-4.41 4.41-20.92 0-25.33l-2.6-2.6 7.14-8.87a1.67 1.67 0 0 1 1.4-.48c3.73.48 19.36 2.12 24.94-3.46 6.35-6.35 3.12-11.66 3.12-11.66h-36.32A12.45 12.45 0 0 0 91.53 67L73.11 85.22A10 10 0 0 1 66 88.15h-7.07"/><path class="cls-22" d="M107.14 7.31h135.57v164.48H107.14z"/><path class="cls-23" d="M128.38 69.99h92.71m-92.71 23.76h92.71m-92.71 23.77h92.71m-46.36 24.94h46.36m-46.16-71.83v46.36m22.98-46.36v46.36"/><path class="cls-24" d="M211.58 45.19a14.27 14.27 0 0 1-6.71-2.7l2.22-3.24a11.27 11.27 0 0 0 4.63 2.3V37c-4.09-1.11-6.11-2.67-6.11-6 0-3.15 2.39-5.2 6-5.57v-1.7h3v1.7a11.92 11.92 0 0 1 5.28 2.1l-1.9 3.32a11.74 11.74 0 0 0-3.52-1.68v4.29c4.32 1.17 6.17 2.93 6.17 6.11v.06c0 3.15-2.42 5.2-6 5.6v2.81h-3v-2.85zm.14-16.25c-1.36.17-2 .85-2 1.76v.06c0 .88.4 1.45 2 2v-3.83zm4.69 10.94v-.06c0-1-.48-1.53-2-2.1v4c1.32-.23 2-.82 2-1.85z"/><path class="cls-25" d="M130.57 35.36h1.85v8.38h-1.85v-8.38zm3.95 0h1.7l3.93 5.16v-5.16H142v8.38h-1.57l-4.07-5.33v5.33h-1.82v-8.38zm8.76 0h2l2.19 5.91 2.19-5.91h2l-3.36 8.44h-1.63zm8.81 4.21a4.46 4.46 0 0 1 8.92 0 4.46 4.46 0 0 1-8.92 0zm7 0a2.55 2.55 0 0 0-2.54-2.64 2.51 2.51 0 0 0-2.55 2.59 2.55 2.55 0 0 0 2.54 2.64 2.51 2.51 0 0 0 2.54-2.59zm3.65-4.21h1.85v8.38h-1.85v-8.38zm3.58 4.21a4.26 4.26 0 0 1 4.38-4.34 4.33 4.33 0 0 1 3.3 1.28l-1.18 1.35a3.1 3.1 0 0 0-2.15-.95 2.49 2.49 0 0 0-2.44 2.61 2.49 2.49 0 0 0 2.44 2.64 3 3 0 0 0 2.21-1l1.18 1.19a4.29 4.29 0 0 1-3.44 1.5 4.24 4.24 0 0 1-4.3-4.28zm9.23-4.21h6.33V37h-4.5v1.7h4v1.64h-4v1.76h4.56v1.64h-6.39v-8.38z"/><path class="cls-21" d="M98.19 120c10.65-5.67 10.52-23.44 4.42-29.53l-2.6-2.6 7.14-8.87a1.67 1.67 0 0 1 1.4-.48c3.73.48 19.36 2.12 24.94-3.46 6.35-6.35 3.12-11.66 3.12-11.66h-36.32a12.45 12.45 0 0 0-8.76 3.6L73.11 85.22A10 10 0 0 1 66 88.15h-7.07"/><path class="cls-26" d="M88.62 244.89l-24.7-36.27m-27.18 34.45l27.18-34.45m342.27-4.07l24.7 36.27m27.18-34.45l-27.18 34.45"/></svg>