<?xml version="1.0" encoding="UTF-8" standalone="no"?>
<svg
   xmlns:dc="http://purl.org/dc/elements/1.1/"
   xmlns:cc="http://creativecommons.org/ns#"
   xmlns:rdf="http://www.w3.org/1999/02/22-rdf-syntax-ns#"
   xmlns:svg="http://www.w3.org/2000/svg"
   xmlns="http://www.w3.org/2000/svg"
   xmlns:sodipodi="http://sodipodi.sourceforge.net/DTD/sodipodi-0.dtd"
   xmlns:inkscape="http://www.inkscape.org/namespaces/inkscape"
   preserveAspectRatio="xMidYMid"
   width="18"
   height="51"
   viewBox="0 0 18 51.000004"
   id="svg2"
   version="1.1"
   inkscape:version="0.48.5 r10040"
   sodipodi:docname="sign-up-icon.svg">
  <metadata
     id="metadata14">
    <rdf:RDF>
      <cc:Work
         rdf:about="">
        <dc:format>image/svg+xml</dc:format>
        <dc:type
           rdf:resource="http://purl.org/dc/dcmitype/StillImage" />
      </cc:Work>
    </rdf:RDF>
  </metadata>
  <sodipodi:namedview
     pagecolor="#ffffff"
     bordercolor="#666666"
     borderopacity="1"
     objecttolerance="10"
     gridtolerance="10"
     guidetolerance="10"
     inkscape:pageopacity="0"
     inkscape:pageshadow="2"
     inkscape:window-width="1280"
     inkscape:window-height="751"
     id="namedview12"
     showgrid="false"
     inkscape:zoom="4.627451"
     inkscape:cx="-29.682203"
     inkscape:cy="25.5"
     inkscape:window-x="12"
     inkscape:window-y="161"
     inkscape:window-maximized="0"
     inkscape:current-layer="svg2" />
  <defs
     id="defs4">
    <style
       id="style6">.cls-2 { fill: #b2b2b2; }</style>
  </defs>
  <path
     style="fill:#b2b2b2;fill-rule:evenodd"
     inkscape:connector-curvature="0"
     d="M 17.223,16.88 H 8.56 c -0.43,0 -0.776,-0.34 -0.776,-0.764 0,-0.423 0.347,-0.766 0.776,-0.766 h 8.66 c 0.43,0 0.776,0.343 0.776,0.766 0,0.423 -0.347,0.765 -0.775,0.765 z M 5.26,16.55 C 5.125,16.685 4.946,16.764 4.757,16.775 L 0.82,17.002 c -0.015,0.002 -0.03,0.002 -0.045,0.002 -0.206,0 -0.403,-0.08 -0.548,-0.224 -0.158,-0.154 -0.24,-0.367 -0.226,-0.585 l 0.233,-3.89 C 0.246,12.119 0.326,11.941 0.459,11.809 L 12.198,0.222 c 0.145,-0.144 0.342,-0.225 0.548,-0.225 0.206,0 0.403,0.08 0.548,0.225 L 17,3.88 c 0.145,0.142 0.227,0.337 0.227,0.54 0,0.203 -0.082,0.398 -0.227,0.54 L 5.26,16.552 z m 5.583,-12.824 -9.08,8.96 -0.103,1.736 c 0.47,0.138 0.82,0.472 0.95,0.94 L 4.37,15.262 13.45,6.3 12.695,5.556 4.021,14.119 c -0.15,0.15 -0.35,0.225 -0.547,0.225 -0.2,0 -0.397,-0.075 -0.55,-0.224 -0.302,-0.3 -0.302,-0.783 0,-1.082 L 11.6,4.473 10.842,3.726 z m 1.903,-1.88 -0.807,0.797 2.606,2.575 0.806,-0.797 -2.607,-2.574 z"
     id="path-1"
     class="cls-2" />
  <path
     style="fill:#b0e44f;fill-rule:evenodd;fill-opacity:1"
     inkscape:connector-curvature="0"
     d="M 17.223,33.887 H 8.56 c -0.43,0 -0.776,-0.342 -0.776,-0.765 0,-0.423 0.347,-0.766 0.776,-0.766 h 8.66 c 0.43,0 0.776,0.343 0.776,0.766 0,0.423 -0.347,0.765 -0.775,0.765 z M 5.26,33.557 C 5.125,33.691 4.946,33.77 4.757,33.781 L 0.82,34.011 H 0.775 c -0.206,0 -0.403,-0.08 -0.548,-0.224 -0.158,-0.154 -0.24,-0.367 -0.226,-0.585 l 0.233,-3.89 c 0.012,-0.185 0.092,-0.363 0.225,-0.495 l 11.74,-11.586 c 0.145,-0.145 0.342,-0.225 0.548,-0.225 0.206,0 0.403,0.08 0.548,0.224 L 17,20.884 c 0.145,0.144 0.227,0.338 0.227,0.54 0,0.204 -0.082,0.4 -0.227,0.542 L 5.26,33.557 z m 5.583,-12.825 -9.08,8.96 -0.103,1.736 c 0.47,0.138 0.82,0.472 0.95,0.94 l 1.76,-0.1 9.08,-8.964 -0.755,-0.744 -8.674,8.563 c -0.15,0.15 -0.35,0.225 -0.547,0.225 -0.2,0 -0.397,-0.075 -0.55,-0.224 -0.302,-0.3 -0.302,-0.783 0,-1.08 L 11.6,21.479 10.842,20.731 z m 1.903,-1.88 -0.807,0.797 2.606,2.574 0.806,-0.797 -2.607,-2.575 z"
     id="path-1-4"
     class="cls-2" />
  <path
     style="fill:#008329;fill-rule:evenodd;fill-opacity:1"
     inkscape:connector-curvature="0"
     d="M 17.223,50.894 H 8.56 c -0.43,0 -0.776,-0.343 -0.776,-0.766 0,-0.423 0.347,-0.766 0.776,-0.766 h 8.66 c 0.43,0 0.776,0.343 0.776,0.766 0,0.423 -0.347,0.766 -0.775,0.766 z M 5.26,50.564 C 5.125,50.697 4.946,50.776 4.757,50.787 L 0.82,51.015 c -0.015,0.002 -0.03,0.002 -0.045,0.002 -0.206,0 -0.403,-0.08 -0.548,-0.225 -0.158,-0.154 -0.24,-0.367 -0.226,-0.585 l 0.233,-3.89 c 0.012,-0.186 0.092,-0.363 0.225,-0.496 l 11.74,-11.585 c 0.145,-0.144 0.342,-0.224 0.548,-0.224 0.206,0 0.403,0.08 0.548,0.225 L 17,37.892 c 0.145,0.143 0.227,0.337 0.227,0.54 0,0.203 -0.082,0.398 -0.227,0.54 L 5.26,50.565 z m 5.583,-12.826 -9.08,8.96 -0.103,1.736 c 0.47,0.138 0.82,0.473 0.95,0.94 l 1.76,-0.1 9.08,-8.964 -0.755,-0.744 -8.675,8.564 c -0.15,0.15 -0.35,0.224 -0.547,0.224 -0.2,0 -0.397,-0.075 -0.55,-0.224 -0.302,-0.3 -0.302,-0.783 0,-1.08 l 8.676,-8.565 -0.758,-0.747 z m 1.903,-1.88 -0.807,0.797 2.606,2.575 0.806,-0.797 -2.607,-2.575 z"
     id="path-1-4-4"
     class="cls-2" />
</svg>
